<svg xmlns="http://www.w3.org/2000/svg" viewBox="0 0 95 115.19999999999999" fill="#2f2f2f" x="0px" y="0px"><path d="M29.79,1.62c7.98,0,11.88,2.7,16.01,5.57,4.15,2.88,8.44,5.86,16.93,5.86s12.78-2.98,16.93-5.86c4.01-2.78,7.81-5.4,15.34-5.55V.01c-8.04,.16-12.22,3.04-16.26,5.84-4.13,2.86-8.03,5.57-16.01,5.57s-11.88-2.7-16.01-5.57C42.57,2.98,38.28,0,29.79,0S17,2.98,12.85,5.86c-3.54,2.46-6.92,4.79-12.85,5.41v1.63c6.46-.64,10.17-3.21,13.78-5.7C17.9,4.33,21.8,1.62,29.79,1.62Z"/><path d="M30.62,11.76c7.98,0,11.88,2.7,16.01,5.57,4.15,2.88,8.44,5.86,16.93,5.86s12.78-2.98,16.93-5.86c3.86-2.68,7.52-5.21,14.5-5.53v-1.63c-7.51,.33-11.53,3.12-15.43,5.82-4.13,2.86-8.03,5.57-16.01,5.57s-11.88-2.7-16.01-5.57c-4.15-2.88-8.44-5.86-16.93-5.86s-12.78,2.98-16.94,5.86c-3.7,2.57-7.23,5-13.68,5.48v1.63c6.98-.49,10.86-3.17,14.61-5.77,4.13-2.86,8.03-5.57,16.01-5.57Z"/><path d="M30.62,21.4c7.98,0,11.88,2.7,16.01,5.57,4.15,2.88,8.44,5.86,16.93,5.86s12.78-2.98,16.93-5.86c3.86-2.68,7.52-5.21,14.5-5.53v-1.63c-7.51,.33-11.53,3.12-15.43,5.82-4.13,2.86-8.03,5.57-16.01,5.57s-11.88-2.7-16.01-5.57c-4.15-2.88-8.44-5.86-16.93-5.86s-12.78,2.98-16.94,5.86c-3.7,2.57-7.23,5-13.68,5.48v1.63c6.98-.49,10.86-3.17,14.61-5.77,4.13-2.86,8.03-5.57,16.01-5.57Z"/><path d="M30.62,50.7c7.98,0,11.88,2.7,16.01,5.57,4.15,2.88,8.44,5.86,16.93,5.86s12.78-2.98,16.93-5.86c3.86-2.68,7.52-5.21,14.5-5.53v-1.63c-7.51,.33-11.53,3.12-15.43,5.82-4.13,2.86-8.03,5.57-16.01,5.57s-11.88-2.7-16.01-5.57c-4.15-2.88-8.44-5.86-16.93-5.86s-12.78,2.98-16.94,5.86c-3.7,2.57-7.23,5-13.68,5.48v1.63c6.98-.49,10.86-3.17,14.61-5.77,4.13-2.86,8.03-5.57,16.01-5.57Z"/><path d="M29.79,41.18c7.98,0,11.88,2.7,16.01,5.57,4.15,2.88,8.44,5.86,16.93,5.86s12.78-2.98,16.93-5.86c4.01-2.78,7.81-5.4,15.34-5.55v-1.62c-8.04,.16-12.22,3.04-16.26,5.84-4.13,2.86-8.03,5.57-16.01,5.57s-11.88-2.7-16.01-5.57c-4.15-2.88-8.44-5.86-16.93-5.86s-12.78,2.98-16.94,5.86c-3.54,2.46-6.92,4.79-12.85,5.41v1.63c6.46-.64,10.17-3.21,13.78-5.7,4.13-2.86,8.03-5.57,16.01-5.57Z"/><path d="M29.79,30.8c7.98,0,11.88,2.7,16.01,5.57,4.15,2.88,8.44,5.86,16.93,5.86s12.78-2.98,16.93-5.86c4.01-2.78,7.81-5.4,15.34-5.55v-1.62c-8.04,.16-12.22,3.04-16.26,5.84-4.13,2.86-8.03,5.57-16.01,5.57s-11.88-2.7-16.01-5.57c-4.15-2.88-8.44-5.86-16.93-5.86s-12.78,2.98-16.94,5.86c-3.54,2.46-6.92,4.79-12.85,5.41v1.63c6.46-.64,10.17-3.21,13.78-5.7,4.13-2.86,8.03-5.57,16.01-5.57Z"/><path d="M32.53,60.96c7.98,0,11.88,2.7,16.01,5.57,4.15,2.88,8.44,5.86,16.93,5.86s12.78-2.98,16.93-5.86c3.49-2.42,6.83-4.72,12.6-5.38v-1.63c-6.3,.68-9.97,3.21-13.52,5.67-4.13,2.86-8.03,5.57-16.01,5.57s-11.88-2.7-16.01-5.57c-4.15-2.88-8.44-5.86-16.93-5.86s-12.78,2.98-16.94,5.86c-4.05,2.81-7.9,5.46-15.59,5.56v1.62c8.21-.1,12.43-3.02,16.52-5.85,4.13-2.86,8.03-5.57,16.01-5.57Z"/><path d="M17.35,76.66c4.13-2.86,8.03-5.57,16.01-5.57s11.88,2.7,16.01,5.57c4.15,2.88,8.44,5.86,16.93,5.86s12.78-2.98,16.93-5.86c3.32-2.3,6.5-4.5,11.77-5.27v-1.64c-5.8,.8-9.3,3.22-12.69,5.58-4.13,2.86-8.03,5.57-16.01,5.57s-11.88-2.7-16.01-5.57c-4.15-2.88-8.44-5.86-16.94-5.86s-12.78,2.98-16.93,5.86c-4.13,2.86-8.03,5.57-16.01,5.57-.14,0-.27,0-.41,0v1.62c.14,0,.27,0,.41,0,8.49,0,12.78-2.98,16.93-5.86Z"/><path d="M66.3,90.54c-7.98,0-11.88-2.7-16.01-5.57-4.15-2.88-8.44-5.86-16.94-5.86s-12.78,2.98-16.93,5.86c-4.13,2.86-8.03,5.57-16.01,5.57-.14,0-.27,0-.41,0v1.62c.14,0,.27,0,.41,0,8.49,0,12.78-2.98,16.93-5.86,4.13-2.86,8.03-5.57,16.01-5.57s11.88,2.7,16.01,5.57c4.15,2.88,8.44,5.86,16.93,5.86s12.78-2.98,16.93-5.86c3.32-2.3,6.5-4.5,11.77-5.27v-1.64c-5.8,.8-9.3,3.22-12.69,5.58-4.13,2.86-8.03,5.57-16.01,5.57Z"/></svg>